<svg width="273" height="273" viewBox="0 0 273 273" fill="none" xmlns="http://www.w3.org/2000/svg">
<circle cx="136.5" cy="136.5" r="129" stroke="#333333" stroke-width="15"/>
<path d="M113.941 136.668C118.253 138.138 121.634 140.539 124.084 143.871C126.632 147.105 127.906 151.025 127.906 155.631C127.906 162.687 125.897 168.714 121.879 173.712C117.959 178.71 112.667 182.532 106.003 185.178C99.339 187.726 91.989 189 83.953 189H41.911L63.667 86.394H102.769C109.335 86.394 114.97 87.472 119.674 89.628C124.378 91.784 128.004 94.675 130.552 98.301C133.198 101.927 134.521 106.043 134.521 110.649C134.521 114.667 133.639 118.391 131.875 121.821C130.111 125.251 127.661 128.24 124.525 130.788C121.487 133.336 117.959 135.296 113.941 136.668ZM99.241 104.034H81.307L76.162 128.436H94.537C98.065 128.436 101.152 127.848 103.798 126.672C106.444 125.496 108.502 123.879 109.972 121.821C111.442 119.665 112.177 117.215 112.177 114.471C112.177 111.433 111.001 108.934 108.649 106.974C106.395 105.014 103.259 104.034 99.241 104.034ZM67.048 171.36H86.893C92.577 171.36 97.085 170.037 100.417 167.391C103.847 164.745 105.562 161.217 105.562 156.807C105.562 153.573 104.337 150.976 101.887 149.016C99.437 147.056 96.056 146.076 91.744 146.076H72.34L67.048 171.36ZM181.177 190.764C172.749 190.764 165.497 189.196 159.421 186.06C153.443 182.826 148.984 178.269 146.044 172.389C143.104 166.509 141.879 159.747 142.369 152.103H163.243C163.243 158.571 164.811 163.716 167.947 167.538C171.083 171.262 175.983 173.124 182.647 173.124C185.783 173.124 188.478 172.585 190.732 171.507C193.084 170.331 194.897 168.763 196.171 166.803C197.543 164.843 198.229 162.589 198.229 160.041C198.229 157.591 197.396 155.484 195.73 153.72C194.064 151.956 191.81 150.437 188.968 149.163C186.224 147.791 183.186 146.517 179.854 145.341C176.62 144.067 173.337 142.695 170.005 141.225C166.673 139.657 163.586 137.795 160.744 135.639C158 133.385 155.795 130.69 154.129 127.554C152.463 124.418 151.63 120.645 151.63 116.235C151.63 109.865 153.198 104.328 156.334 99.624C159.47 94.92 163.978 91.245 169.858 88.599C175.836 85.953 182.941 84.63 191.173 84.63C198.425 84.63 204.844 86.002 210.43 88.746C216.016 91.49 220.377 95.41 223.513 100.506C226.649 105.504 228.168 111.482 228.07 118.44H206.755C206.559 113.54 204.893 109.62 201.757 106.68C198.621 103.74 194.603 102.27 189.703 102.27C186.763 102.27 184.117 102.809 181.765 103.887C179.511 104.867 177.698 106.288 176.326 108.15C175.052 109.914 174.415 111.972 174.415 114.324C174.415 116.872 175.248 118.979 176.914 120.645C178.58 122.213 180.785 123.634 183.529 124.908C186.273 126.084 189.311 127.309 192.643 128.583C196.073 129.759 199.405 131.131 202.639 132.699C205.971 134.169 209.009 135.982 211.753 138.138C214.497 140.294 216.702 143.038 218.368 146.37C220.034 149.604 220.867 153.524 220.867 158.13C220.867 164.99 219.103 170.87 215.575 175.77C212.145 180.67 207.441 184.394 201.463 186.942C195.583 189.49 188.821 190.764 181.177 190.764Z" fill="#333333"/>
</svg>
